<?xml version="1.0"?><svg width="1000" height="1000" xmlns="http://www.w3.org/2000/svg" xmlns:xlink="http://www.w3.org/1999/xlink">
 <title>Stop Button</title>
 <defs>
  <linearGradient id="linearGradient3634">
   <stop stop-color="#004c91" id="stop3636" offset="0"/>
   <stop stop-color="#00d7ff" id="stop3638" offset="1"/>
  </linearGradient>
  <linearGradient id="linearGradient3624">
   <stop stop-color="#ffffff" offset="0" id="stop3626"/>
   <stop stop-color="#f1f1f1" offset="1" id="stop3628"/>
  </linearGradient>
  <linearGradient id="linearGradient3616">
   <stop stop-color="#ffff00" id="stop3618" offset="0"/>
   <stop stop-color="#ffff00" stop-opacity="0" id="stop3620" offset="1"/>
  </linearGradient>
  <linearGradient y2="0.527866" x2="1.027314" y1="0.470178" x1="1.027315" id="linearGradient3622" xlink:href="#linearGradient3624"/>
  <linearGradient gradientUnits="userSpaceOnUse" y2="808.75488" x2="393.03571" y1="796.31158" x1="393.03571" id="linearGradient3640" xlink:href="#linearGradient3634"/>
  <linearGradient y2="1.015379" x2="0.5" y1="0.632508" x1="0.5" id="linearGradient3648" xlink:href="#linearGradient3634"/>
 </defs>
 <metadata id="metadata7">image/svg+xml</metadata>
 <g>
  <title>Layer 1</title>
  <g transform="matrix(22.7091 0 0 22.7091 -10368.4 -16813.6)" id="g3644">
   <path fill="url(#linearGradient3648)" stroke="#000091" stroke-width="0.99962" stroke-miterlimit="4" id="path3632" d="m499.952759,762.407471c0,11.798035 -9.562988,21.361023 -21.359985,21.361023c-11.796997,0 -21.360992,-9.562988 -21.360992,-21.361023c0,-11.796997 9.563995,-21.359985 21.360992,-21.359985c11.796997,0 21.359985,9.562988 21.359985,21.359985z"/>
   <path fill="#ffffff" fill-opacity="0.517857" d="m457.92276,761.961487c-0.031982,4.070984 13.675995,-3.28302 19.822021,-3.213989c6.046997,0.067993 21.516998,7.955017 21.516998,2.5c0,-7.536011 -6.851013,-19.38501 -20.446014,-19.465027c-13.595001,-0.078979 -20.821991,11.232056 -20.893005,20.179016z" id="path3642"/>
  </g>
  <rect id="svg_5" height="429" width="429" y="285.5" x="285.5" stroke-width="0" stroke="#000000" fill="#ffffff"/>
 </g>
</svg>